<?xml version="1.0" encoding="UTF-8"?>
<svg id="Calque_2" data-name="Calque 2" xmlns="http://www.w3.org/2000/svg" viewBox="0 0 266.5 231.45">
  <defs>
    <style>
      .cls-1 {
        fill: #a8454f;
      }

      .cls-2 {
        fill: #b9ddcb;
      }

      .cls-3 {
        fill: #ebc445;
      }
    </style>
  </defs>
  <g id="Calque_8" data-name="Calque 8">
    <g>
      <path class="cls-2" d="m69.63,35.04c2.49.02,5.01.04,7.51.07-1.26-.03-2.51-.08-3.79-.16-1.64-.05-2.5.02-3.73.09Z"/>
      <path class="cls-2" d="m85.43,35.18c.4,0,.79-.02,1.14-.03-.82,0-1.65,0-2.47.01.45,0,.91,0,1.33.01Z"/>
      <path class="cls-2" d="m97.18,35.16c-2.31-.04-4.52-.04-6.66-.03,1.89.04,4.08.05,6.66.03Z"/>
      <path class="cls-2" d="m86.63,35.15s-.03,0-.05,0c1.3,0,2.6-.02,3.95-.02-1.41-.03-2.67-.07-3.76-.13.8.06,1.2.12-.13.15Z"/>
      <path class="cls-2" d="m86.76,35c-.78-.05-2.01-.12-2.43-.15.71.05,1.52.1,2.43.15Z"/>
      <path class="cls-2" d="m90.07,33.73c1.32-.03,1.01.33,3.62.27,6.12-.06,11.36-.19,17.09-.16.71-.02,1.52,0,2.39.04.06-.08.11-.15.17-.23-5.17,0-10.24,0-16.05,0-10.13.09-19.86.17-30.23.26-2.9,0-5.61-.05-8.35-.09,3.56.08,7.21.15,11.26.24,5.33.14,11.76-.29,20.1-.32Z"/>
      <path class="cls-2" d="m18.21,34.36c5.83.3,11.95.24,18.08.17-.89-.07-1.8-.13-2.72-.2-3.28,0-3.84.09-1.35.18-6.92-.25-13.49-.33-20.22-.33.43.1.34.22,2.28.28,1.3-.03,3.92-.1,3.92-.1Z"/>
      <path class="cls-2" d="m66.58,124.32l-2.54-.07.17.05,2.38.04s-.01-.02-.02-.03Z"/>
      <path class="cls-2" d="m65.31,123.89c.32,0,.67.02,1.04.04-.04-.07-.08-.13-.12-.2-.39.05-.85.1-.92.16Z"/>
      <polygon class="cls-2" points="64.95 124.51 64.21 124.3 63.82 124.29 64.95 124.51"/>
      <path class="cls-2" d="m151.28,35.19c-.54-.71-.81-.93-.41,0,.14,0,.27,0,.41,0Z"/>
      <path class="cls-2" d="m203.82,113.3c.16.25.32.52.49.85-.14-.3-.27-.62-.42-.96-.03.04-.05.07-.08.11Z"/>
      <path class="cls-2" d="m18.2,46.06c-4.86-7.34-7.37-10.68-8.56-11.88.8,0,1.59,0,2.37,0-.03-.01-.09-.02-.14-.03-.75,0-1.5.01-2.25.01-.81-.81-1-.61-.89,0-.3,0-.61,0-.91,0,.05,0,.1,0,.15,0,.26,0,.51,0,.77,0,.19,1.05,1.2,3.27,1.42,3.69,6.66,13.35,13.59,23.08,28.52,48.39-7.11-12.21,9.21,13.27,18.9,30.24.76-1.13,1.53-2.26,2.28-3.37-.78-1.3-1.55-2.59-2.33-3.9-10-16.68-29.33-47.27-39.32-63.18Z"/>
      <path class="cls-2" d="m204.53,114.57c-.07-.16-.14-.28-.21-.42.07.14.14.29.21.42Z"/>
      <path class="cls-2" d="m62.02,124.41l.93.05c-.13-.07-.5-.13-1.02-.2.03.05.06.1.09.15Z"/>
      <path class="cls-2" d="m38.67,86.27c.4.68.86,1.47,1.41,2.4-.48-.81-.95-1.61-1.41-2.4Z"/>
      <path class="cls-2" d="m238.61,33.91c-13.5-.08-25.13-.03-36.26.06,12.44,0,21.53,0,35.4,0,9.25.04-6.44.43-12.56.49-2.62.07-6.74-.37-9.36-.3-5.7-.04-10.94.09-17.06.16-2.63.06-2.32-.3-3.63-.27-8.34.03-14.78.46-20.11.32-4.05-.09-7.7-.16-11.26-.24-2.25-.03-4.49-.07-6.87-.07-1.22.02-2.48.03-3.75.05.03.04.05.08.08.12.06.09.11.18.17.27.15.24.3.47.45.7,7.05.05,13.99.1,20.84.15,1.23-.06,2.09-.14,3.74-.09,1.25.07,2.51.12,3.75.15,2.34.02,4.67.04,6.98.06.81,0,1.63,0,2.46-.01.01,0,.05,0,.07,0,1.31-.03.92-.09.11-.15-.9-.04-1.73-.1-2.44-.15.45.03,1.65.1,2.44.15,1.1.05,2.33.1,3.76.13.97,0,1.96,0,2.97,0-.81,0-1.64,0-2.47.01-.17,0-.34,0-.5,0-1.07,0-2.1.01-3.12.02-.01,0-.02,0-.04,0,0,0,0,0,0,0-.26,0-.53,0-.79,0-.37,0-.75.02-1.14.03,5.33.05,10.63.1,15.94.15,1.22,0,2.39,0,3.34,0,3.85-.02,7.68-.05,10.05.14.94,0,1.89.02,2.85.03-.18-.01-.37-.02-.55-.04.42.02.78.03,1.07.04,4,.04,8.02.08,12.06.12l20.64.22-1.02,1.5c-6.62,9.78-13.11,19.38-19.55,28.9-6.5,9.64-12.94,19.2-19.42,28.81-3.88,5.76-7.78,11.53-11.7,17.35l1.69,3.07c7.46-11.19,15.08-22.57,22.95-34.25,8.73-13.03,16.07-24.64,23.25-35.7,1.03-1.54,2.07-3.1,3.11-4.65,1.59-2.36,3.18-4.71,4.75-7.03-7.71-.09-15.13-.17-21.35-.24Zm16.23,4.28c-.56.76-1.11,1.5-1.62,2.2.28-.44.55-.87.81-1.29.23-.35.45-.7.67-1.04.44-.67.88-1.31,1.33-1.95-1.86-.05-3.52-.15-5.6-.26.48,0,.98,0,1.49,0,.49,0,.99,0,1.5,0,1.01,0,2.05.02,3.06.04-.55.79-1.11,1.58-1.64,2.31Z"/>
      <path class="cls-2" d="m194.33,127.38c1.71-.07,2.85-.11,3.94-.13.04-.06.09-.13.13-.19-1.33,0-2.49.04-3.89.06-.06.09-.12.17-.18.26Z"/>
      <path class="cls-2" d="m176.02,154.53c-1.14,1.69-2.28,3.36-3.42,5.04l2.09,3.05c7.74-11.59,15.47-23.22,23.34-35.03-1.24-.03-2.5-.05-3.81-.06-5.95,8.83-12,17.79-18.2,26.99Z"/>
      <path class="cls-2" d="m195.28,125.97s-.04.06-.06.09l1.77.09-.65.02.69.2c-.4-.28.65-.27,1.95-.19.02-.03.04-.07.07-.1-1.09-.1-2.34-.16-3.76-.11Z"/>
      <path class="cls-2" d="m132.16,218.98c-.86,1.26-1.72,2.52-2.58,3.77-.39.56-.78,1.12-1.16,1.67-.33-.55-.66-1.09-.98-1.63-.76-1.24-1.53-2.47-2.29-3.71-1.52-2.46-3.04-4.92-4.55-7.37-3.03-4.89-6.05-9.74-9.05-14.58-4.91-7.89-9.79-15.73-14.67-23.58h-4.7c7.88,12.47,15.89,25.11,23.22,37.14,1.69,2.77,3.43,5.59,5.24,8.49,2.47,3.95,5.02,8.03,7.66,12.27,2.29-3.41,4.67-6.95,7.12-10.6,10.94-15.98,21.48-31.64,31.96-47.3h-4.27c-10.51,15.47-20.79,30.56-30.96,45.43Z"/>
      <path class="cls-2" d="m63,126.1c5.83,10.11,12.77,21.37,20.12,33.07l2.54-3.72c-5.96-9.64-11.94-19.38-17.96-29.31-1.57,0-3.17-.02-4.7-.05Z"/>
    </g>
  </g>
  <g id="Calque_7" data-name="Calque 7">
    <polygon class="cls-1" points="174.7 162.62 172.61 159.57 150.53 127.3 150.44 127.17 150.16 126.77 148.29 124.02 127.73 93.97 107.16 124.04 105.77 126.07 85.66 155.46 83.12 159.18 73.28 173.56 92.18 173.56 96.89 173.56 163.12 173.56 167.39 173.56 182.17 173.56 174.7 162.62"/>
  </g>
  <g id="Calque_4" data-name="Calque 4">
    <g>
      <path class="cls-3" d="m127.38,13.66c-.16.21-.35.49-.48.66-.14.3.07,0,.48-.66Z"/>
      <path class="cls-3" d="m125.97,14.39l.3-.42c-.09.12-.19.26-.3.42Z"/>
      <path class="cls-3" d="m126.27,13.97c.74-1,.83-.85,1.73-2.41l-1.73,2.41Z"/>
      <polygon class="cls-3" points="127.04 13.54 125.93 15.23 127.09 13.76 127.04 13.54"/>
      <path class="cls-3" d="m102.44,123.65l-.45-.23c-.19.09.06.16.45.23Z"/>
      <path class="cls-3" d="m96.01,123.65h-1.56c.52.03,1.07.02,1.56,0Z"/>
      <path class="cls-3" d="m85.47,78.55c-.6.76-1.39,1.76-2.23,2.81.55-.54.91-.6,2.23-2.81Z"/>
      <path class="cls-3" d="m152.06,126.74l-.38.12c.99,0,.79-.06.38-.12Z"/>
      <path class="cls-3" d="m86.89,123.8l1.27.08s.07,0,.09-.01c-.24-.07-.68-.09-1.36-.07Z"/>
      <path class="cls-3" d="m165.57,127.38c-.46-.12-.99-.2-1.54-.28-.21.09.35.21,1.54.28Z"/>
      <path class="cls-3" d="m102.64,126.29c-.72-.03-1.35-.05-2.02-.08.45.06,1.16.1,2.02.08Z"/>
      <path class="cls-3" d="m82.53,82.25c.24-.3.47-.59.71-.89-.2.2-.42.45-.71.89Z"/>
      <path class="cls-3" d="m122.01,22.23c-.32.32-.67.75-1.05,1.25.2-.13.43-.31,1.05-1.25Z"/>
      <path class="cls-3" d="m133.57,8.02c-.06-.1-.13-.22-.24-.38l.24.38Z"/>
      <path class="cls-3" d="m156.6,44.82c-.04-.15-.13-.34-.21-.53-.07.03-.02.23.21.53Z"/>
      <path class="cls-3" d="m150.44,127.17l.09.13c1.38,0,2.03-.05.52-.2.08.05-.18.08-.61.08Z"/>
      <path class="cls-3" d="m184.7,81.74c-.05-.11-.12-.24-.21-.41l.21.41Z"/>
      <path class="cls-3" d="m123.74,18.85c-.52,1.1-2.51,4.15-3.04,4.57-.1-.45,2.12-3.43,2.99-4.79-4.03,5.9-4.61,5.7-7.72,10.84l.67-.79c-.96,1.73-2.13,3.39-3.29,4.97-.06.08-.11.15-.17.23-.97,1.32-1.92,2.6-2.72,3.82.44-.81.42-1.03.12-.69-3.75,6.2-7.91,12.07-12.33,19.07l-1.71,1.91.17.26c-2.13,3.44-.84.55-2.26,2.74.55-.83.49-.66.67-.8-2.89,3.78-1.21,2.3-2.75,4.47.97-.91,2.91-4.2,2.62-3.03-2.88,3.77-6.76,9.95-7.75,10.2-4.57,7.4-10.93,16.22-15.04,22.31-.45.89.43-.48.3-.11-1.96,2.24-5.13,8.24-5.47,8.12-.69,1.21-.78,1.82-.9,2.18-1.18,1.47-2.49,3.29-3.83,5.24l1.04-1.4-.06.18-1.48,1.98.03-.09c-.64.94-1.3,1.91-1.96,2.9-.75,1.11-1.52,2.24-2.28,3.37-.14.21-.29.42-.43.63-.81,1.18-1.61,2.35-2.39,3.49-1.22,1.79-2.46,3.57-3.73,5.36.96.04,1.87.07,2.77.11-2.7-.12-2.07-.22-1.27-.3.6-.06,1.3-.11,1.25-.16.89.11,2.17.19,3.74.27.68.03,1.41.07,2.18.11.66.03,1.36.05,2.08.07.4.01.81.02,1.22.03,1.53.03,3.13.05,4.7.05,1.05,0,2.08,0,3.08,0-.02-.11.42-.19-.25-.28l3.35.23-.44-.13c6.01-.06,12.54.56,16.51.34-2.45-.08-2.46-.18-2.71-.36,4.3.04,8.36.07,13.39.26-.27-.03-.44-.07-.45-.11,1.32-.04,2.9.1,4.25.17l.18-.26c.37.02.77.03,1.17.04l1.39-2.03c-1.88-.13-3.85-.23-4.72-.38h.02s-4.94-.25-4.94-.25c1,.05-.08.2-1.52.25h.23c-1.57.08,1.86.63-2.85.44l-2.47-.18c.44.02.02.11-.22.15l-2.55-.17c-3.9.51-7.35-.35-11.94-.12,1.32-.04,3.34.02,2.47.18-.89.06-2.23-.01-2.92-.1l.23.07-8.74-.41c.71.2,5.6.24,3.41.45-1.03.2-2.84.06-4.33-.03-.37-.02-.73-.04-1.04-.04.08-.06.54-.11.92-.16.55-.07.94-.13-.11-.18-.17,0-.38-.02-.64-.03-.36.07-3.14.21-1.83.33-.62-.04-1.3-.07-2.01-.1-.95-.04-1.96-.09-2.96-.14l-.33-.02-.2-.02c-.12-.01-.23-.02-.35-.03-.22-.02-.43-.04-.62-.07-.38-.05-.67-.1-.84-.17.04-.05.07-.08.11-.11.04-.15-.11,0-.28.2.08.02.19.03.26.04l.18-.04c.37.04.3.14.4.21.05.03.14.06.37.07.11,0,.26,0,.44,0,.21,0,.46-.02.77-.03.05.08-.07.14-.29.18-.16.04-.41.06-.72.07-.63.02-1.49-.01-2.3-.04.48-.67.93-1.31,1.25-1.83-.49.59-1.05,1.27-1.67,2.05l.99.1c-.44.04-.9.07-1.39.09.66-1.24,1.65-2.83,2.79-4.59.37-.56.75-1.13,1.14-1.7.76-1.12,1.54-2.25,2.33-3.37.03-.04.05-.08.08-.12,2.43-3.46,4.89-6.85,6.86-9.81-1.07,1.92-2.24,3.39-1.71,3.37,2.77-3.81,2.35-3.34,5.01-7.2l-.24.32c1.14-2.11,3.34-4.67,3.87-6.17-.79.76-1.7,2.96-2.15,2.79l3.29-4.9c-1.27,1.42-3.29,4.9-4.59,6.74-.87,1.36,1.86-2.69,1.71-1.9-3.05,4.58-4.02,5.49-5.91,7.54-1.2,1.22,1.03-2.16,1.59-3.01,2.37-2.69,5.4-6.86,8.22-11.51l1.33-2.66c1.78-2.1,1.72-.85,4.35-4.96l-1.04,1.1c.5-.94.86-1.54,1.15-1.97-1.33,1.66-2.78,3.44-4.01,4.93,1.04-2.57,4.65-6.52,7-9.88-.18.14-.99,1.32-1.35,1.61,3.25-5.14,7.35-10.15,10.02-14.03.88-1.77-2.3,3.18-2.08,2.21,1.49-2,2.75-4.47,3.41-4.87-1.02.68,3.11-4.75.1-1.01,4.74-7.52,10.54-15.5,15.76-22.89-.37.3-.47.25-.35-.11-1.68,2.54-4.27,6.21-5.5,7.47.89-1.78,2.9-3.8,3.1-4.35-.67.8-1.79,2.49-2.02,2.41,1.2-2.3,2.35-3.34,3.4-4.85l-.44.89c2.81-3.78,2.69-2.89,4.31-5.23.01-.02.02-.04.04-.05.12-.17.25-.37.39-.58.06-.09.12-.18.19-.28.23-.36.5-.77.8-1.24.96-1.97-.22-.09-.56-.22.92-1.13,3.12-5.16,4.28-6.23l-2.01,3.08c1.51-2.1,2.86-4.13,3.95-5.56-.17.12-.32.21-.65.65,1.23-1.65,2.66-3.86,3.45-4.62l-.02-.65Zm-54.48,106.05s0,.04.01.06c-.04-.02-.05-.04-.01-.06Zm16.37.81l-4.52.12c-.39.03-.87.05-1.46.04l1.46-.04c1.73-.14,2.1-.55,4.52-.12Zm-9.7-.89c3.59.19,3.84.36,6.57.72-3.56.13-4.52-.35-4.1-.54-2.47-.19-2,.06-3.32.09l.85-.28Zm-11.88-.58l2.54.07,3.49.09-3.48-.07-2.38-.04.74.21-1.13-.22h.39s-.17-.04-.17-.04Zm-5.86-.21c.18,0,.36,0,.54.01.19,0,.38.01.56.02.37.01.73.03,1.06.05.61.04,1.15.09,1.59.14.52.06.89.13,1.02.2l-.93-.05-2.65-.14,1.8.2-2.7-.2c-.82-.07-1.51-.13-2.16-.19.66-.04,1.27-.05,1.86-.04Zm-.34.52c.93.07,1.65.17,1.37.29-1.13-.06-1.4-.11-1.36-.16.02-.05.26-.09-.01-.13-.56-.04-1.14-.08-1.7-.09,1.03.03,1.49.06,1.7.09Zm-5.49.76c1.99,0,3.59,0,3.12,0-.33.09-1.76.12-3.37.12.93-1.42,2.08-3.09,2.57-3.71-.55.84-1.5,2.31-2.32,3.59Zm2.55-4.26c-.2.32-.27.41-.27.38,0-.06.31-.64.37-.85l-1.28,1.68c.58-.87.92-1.34,1.1-1.57.05-.06.08-.1.11-.13.02-.02.04-.03.05-.03.02,0,.03.01.02.05l.72-.88c-.38.64-.57.96-.82,1.35Zm22.83-33.11c-1.58,2.28-4.38,6.7-5.38,8.53-.02.13-.11.34-.37.74.04-.13.19-.41.37-.74.01-.13-.09-.11-.27.04-.24.32-.47.6-.62.71.2-.3.44-.57.62-.71.64-.85,1.48-2.18,1.8-2.82-.36.29-1.24,1.66-1.67,2.14,1.03-2.17,4.93-6.22,3.21-5.38.67-.8,2.83-3.6,2.31-2.51Zm9.18-13.49l.21-.57.8-1.17-1.01,1.74Zm14.26-21.95l.4-1.11.97-.91-1.37,2.03Z"/>
      <path class="cls-3" d="m213.17,126.31c.1.27.44.89.61,1.25-.69-.05-1.05-.1-.27-.14-.02,0-.22-.27-.47-.63-.35-.83-1.91-3.25-3.15-5.19-.21-.33-.4-.64-.58-.91-.14-.22-.25-.41-.33-.56-.16-.3-.18-.42.03-.26-1.19-1.64-1.68-1.78-2.39-2.8l-.71-1.28-1.69-3.07-.84-1.53.05.21c-6.93-9.28-11.04-18.27-17.57-27.79l-.05.27-1.09-2.14c.55,1.13-.97-1.13-1.19-1.2l-3.6-6.39c-.24-.07-.35.47.7,1.96-1.69-2.27-2.89-4.88-4.19-6.95l.3.77-1.2-2.13-.2.13c-2.09-3.47-5.03-7.61-5.5-9.03l-.08.57-2.06-3.76,1.1,2.19c-2.68-4.04-6.39-10.37-6.95-11.24l.11.43c-.49-.63-.75-1.2-1.15-1.92l.15.63c-3.01-4.77-4.59-6.73-7.09-10.6-.15-.23-.3-.46-.45-.7-.06-.09-.11-.18-.17-.27-.03-.04-.05-.08-.08-.12-.54-.86-1.14-1.81-1.79-2.9-1.24-1.85.6,1.07.51,1.15-.81-.95-2.2-3.42-2.45-3.98.05.69,1.99,3.54.35,1.46-.85-1.63.41,1.2-1.29-1.57l-.31-1.26c-1.04-1.49-.49-.16-2-2.59-1.6-2.84,2.59,3.16-.19-1.31-1.45-2.21-3.88-4.24-6.44-8.65-2.58-3.62.66,2.25-2.54-2.94l1.86,3.42c-.65-.8-.5-.17-1.85-2.43-.3-.78-1-2.25-1.75-3.46,2.8,4.96-3.14-4.01-.64.66l-1.06-1.68c.12.22.12.29.02.19l-1.2-1.83c.23-.34.44-.67.64-.97-.17.1-.43.38-.76.8l-.13-.2c.04.07.08.14.12.22-.1.13-.21.27-.32.42l-.34-.51c.34.96-.5-.17-.55.1l.53.91c-1.39,1.98-3.3,5.08-4.2,6.51,1.25-1.68,2.93-4.16,4.34-6.27l4.98,8.52c-.11-.43-.9-1.84-.45-1.4,1.73,2.47,1.09,2.18,2.79,4.46l-.5-1.13c.06.22.25.56-.1.06-.64-.78-.75-1.21-.65-1.27.75.73,2.14,3.19,2.45,3.98,2,3.06.79.44,1.29,1.09.66,1.77,3.3,5.13,4.35,7.12l-.55-1.34c1.78,2.2,2.89,4.41,3.69,5.82l-.15-.63c.35.55.68,1.04,1,1.5.06.09.13.18.19.27.19.26.37.51.55.75,1.25,1.67,2.26,2.9,2.9,4.87l-.09-.41c.92,1.31,2.36,3.26,2.98,4.64.1-.01.34.17.71.7.2.85,1.29,2.14,2.6,4.09-.77-1.34-.16-1.09-.96-2.51,2.29,2.87,1.41,2.97,3.05,5.52,1.15,1.44-.69-1.47-.8-1.9,2.34,4.03,5.97,7.71,6.89,10.53l-1.3-1.58c.86,1.64,1.4,2.49,1.34,2.27-.35-.49-.39-.69-.44-.9,3.38,4.56,4.24,7.65,7.44,12.36-.1-.42-.5-1.12-.41-1.2,1.54,2.13.72,2.47,3.25,5.89l-.3-.77c.74,1,1.1,1.88,1.08,1.99.72.02,4.79,7.56,7.1,9.63.8,1.9,3.75,7,4.89,8.44,1.74,2.01-.86-2.12-.02-1.47,1.1,1.71,1.36,2.77,3.1,5.26-.29.2-3.88-4.71-.99.17l.6.59c-.34-.49-.84-1.13-1.25-1.85-.7-1.48.75.73,1.04,1l3.2,5.2c-.1.55-1.99-2.57-2.28-2.85,2.66,4.01,6.27,8.63,8.47,12.51.02.03.03.05.05.08l-.03-.11-.08-.31c.05.08.09.15.13.23.89,1.56,1.45,2.34,1.86,2.84.82.99,1.1.86,2.35,3.55,1.36,1.94-.06-.84,1.82,2.03.52.81,0,.27-.14.14.36.62.63,1.04.85,1.36-.82.01-.93.08-1.29.12-.35.03-1,.02-2.65-.11.32.12.61.25.99.37-2.2-.12-4.42-.29-6.61-.46-1.24-.09-2.47-.18-3.66-.25-1.91-.11-3.75-.17-5.47-.13.28.28,3.16.27,4.31.5-6.32-.55-15.16-.16-21-.47,1.75-.23-2.76-.57.98-.75.96.37,2.72.14,4.72.2-3.23-.81-13.54.3-14.53-.4l-.86.28c-.9-.05-3.17-.27-1.6-.35l-6.45.14c2.26.23,7.03.75,8.53.45,1.83.31-2.64.18-1.02.53-4.31-.5-2.65.18-7.12.05,2.02-.39-4.44-.58-4.24-.78-.93.04-2.6-.03-4-.12l1.88,2.74c.44-.03.82-.08,1.03-.15.11.03.55.08.87.12l.48-.16c4.19.31,8.45.13,11.5.52.18-.08.91-.14,2.35-.11l.06.32,4.46.02-2.08-.48c4.89-.06,8.33.49,12.34.6,1.04-.53,7.84.25,11.32-.2l-3.14-.17c2.2.05,3.79.04,5.16.03,1.39-.02,2.56-.05,3.89-.06,1.35,0,2.87,0,4.98.08-2.37.07-3.69.08-5.11.11-1.08.02-2.23.06-3.94.13-1.08.05-2.37.11-4.02.19,1.37-.03,2.66-.04,3.92-.03,1.31,0,2.58.03,3.81.06.78.02,1.56.04,2.33.06,1.57.04,3.11.08,4.68.1,1.43,0,2.87.01,4.33.02,1.59,0,3.19,0,4.77-.03-.31-.46-.64-.95-.97-1.44ZM133.74,9.32l-1.66-2.47c.1-.15.2-.29.29-.44.89,1.54,2.51,4.17,1.37,2.91Zm10.97,14.17l.59,1.05c.25.57-.05.28,0,.49-.75-1.21-1.6-2.84-.6-1.54Zm9.13,15.23c-.32-.44-.69-.95-1.07-1.48-.44-.24.79,1.98,1.03,2.6-.59-1.05-.94-2.04-1.94-3.32.05.21-.1.06.45.91l-1.24-1.84c-.07-.15-.13-.29-.18-.4-.4-.93-.14-.7.41,0,.4.52.94,1.29,1.48,2.05.09.04.23.17.53.52.24.3.37.62.53.96.3.4.56.74.71.88l.06.22c-.38-.37-.59-.75-.76-1.1Zm11.02,13.77c-1.84-2.43-1.11-2.2-2.05-3.76,1.49,1.92.9,1.83,2.05,3.76Zm-.4-.22c.3.29,1.19,1.64,1.79,2.7-1.15-1.43-1.2-1.65-1.79-2.7Zm4.86,10.65c-.15-.63.5.64.95,1.08l1.94,3.33c-.79-.44-1.85-2.92-2.89-4.41Zm15.23,23.76c.19-.14-1.8-3.19-2-3.55-.05-.67.55.49,1.46,1.56-.32-.32.4,1.24,1.38,2.64l-.84-.65Zm2.39,3.77c1.25,1.86,2.55,3.92,2.99,4.34-.04.29-2.74-3.29-2.99-4.34Zm14.21,19.07c-1.75-2.51.45,1.4-.74-.23l.88,1.33c-1.63-2.06-.74-1.68-1.79-3.18l.7,1c.73.7-.86-1.64-.81-1.92.85,1.15,2.45,3.99,1.76,2.99Zm3.17,4.63c-.17-.32-.33-.6-.49-.85-.67-1.04-1.26-1.57-1.64-2.77.94,1,1.38,1.89,1.72,2.66.15.34.28.66.42.96.07.14.14.26.21.42-.08-.14-.15-.28-.21-.42Zm-10.6,10.87l-2.71-.14.23-.04,2.68.14-.2.04Zm-26.11-.37l1.37.18-2.44.03,1.07-.21Zm-6.47.98c-1.39-.01-1.79.02-1.64-.18-.67-.09-1.78.01-2.46-.08,2.71-.16,2.54.16,4.1.26.36,0,.78,0,1.29.03-.56,0-.95,0-1.29-.03Zm3.58,1.28c-.38.01-.78.02-1.22-.02l1.22.02c.98-.04,1.71-.17,1.92.04l-1.92-.04Zm5.24-1.39c-.72-.41-5.81-.2-6.94-.31,2.65-.07,8.66-.13,6.94.31Zm5.13,1.45c-.93-.16-4.03-.21-4.08-.43,2.7.25,4.62-.34,5.14.11-.91-.05-1.35-.07-2.02-.05.47.13,2.29.33.95.37Zm23.89-.79c-1.3-.08-2.35-.09-1.95.19l-.69-.2.65-.02-1.77-.09-.92-.05c.34-.02.66-.03.98-.04,1.43-.05,2.67.02,3.76.11,1.22.11,2.25.25,3.11.29-.73-.01-2.05-.13-3.17-.19Z"/>
      <path class="cls-3" d="m178.54,78.76s-.02,0-.03,0c.02.02.03.02.03,0Z"/>
      <path class="cls-3" d="m159.7,49.08c.2.35.46.76.89,1.38-.3-.49-.6-.95-.89-1.38Z"/>
      <path class="cls-3" d="m152.29,124.15c.39-.02.68-.05.75-.1-.52.04-.7.07-.75.1Z"/>
      <path class="cls-3" d="m121.31,23.86c-.6.61-.63,1.04-1.19,1.89.56-.85,2.16-2.8,1.19-1.89Z"/>
      <path class="cls-3" d="m117.98,28.28c-.6.86-1.13,1.55-1.54,2.01.76-.87,1.19-1.46,1.54-2.01Z"/>
      <path class="cls-3" d="m117.98,28.28c.63-.91,1.37-2.04,2.18-3.37-1.25,1.73-1.62,2.51-2.18,3.37Z"/>
      <path class="cls-3" d="m106.66,45.38c.04-.07.07-.11.07-.11-.02.04-.04.07-.07.11Z"/>
      <path class="cls-3" d="m104.62,48.29c1.29-1.43,1.51-1.34,3.38-4.04-.37.3-3.95,5.4-1.34,1.13-.27.43-1.3,2.08-2.04,2.91Z"/>
      <path class="cls-3" d="m100.68,54.06c.27-.38.53-.79.77-1.23-.2.35-.48.78-.77,1.23Z"/>
      <path class="cls-3" d="m97.56,58.34c.61-.62,1.15-1.06,2.2-2.56-.51.41.21-.64.92-1.72-.95,1.35-2.03,2.37-3.12,4.28Z"/>
      <path class="cls-3" d="m68.89,104.49l1.68-2.55c-.12-.03-.68.81-.93,1.15-.32.52-1.49,2.39-.75,1.4Z"/>
      <path class="cls-3" d="m61.5,114.02l.28.3c.74-1-.23-.08,1.13-2.1l-1.42,1.8Z"/>
      <path class="cls-3" d="m61.84,110.15l-.03.1c.16-.24.31-.46.47-.68l-.43.58Z"/>
      <path class="cls-3" d="m57.17,121.81c-.07.04-.15.09-.23.15-.07.09,0,.14.16.07.08-.03.18-.09.29-.17.02-.01.02-.01.05-.04.03-.03.05-.06.08-.09.06-.07.12-.14.18-.21.13-.15.27-.33.42-.54l-.67.6-.17.15c-.06.05-.08.05-.12.08Z"/>
      <polygon class="cls-3" points="58.76 123.17 60.33 123.3 61.4 123.31 63.67 123.32 61.36 123.25 58.76 123.17"/>
      <polygon class="cls-3" points="72.61 123.58 76.41 123.62 73.05 123.5 72.61 123.58"/>
      <path class="cls-3" d="m206.06,124.78c-.16.05-.35.09-.57.12-.28.02-.59.04-.9.04-.62,0-1.25-.01-1.85-.03-1.2-.04-2.27-.09-2.81.13,1.54-.08,7.04.1,6.13-.25Z"/>
      <path class="cls-3" d="m163.03,53.95c1.89,3.12.36.99,2.44,3.97l-2.44-3.97Z"/>
    </g>
  </g>
  <g id="Calque_5" data-name="Calque 5">
    <g id="Fernanda_vectorizer">
      <path d="m14.86,4.72h.89c.29-.08.46-.12.53-.12.21,0,.31.09.31.28,0,.14-.12.21-.35.21h-.13l-.48.24-.59-.18-.86.43-.36-.16c-.15-.08-.33-.12-.54-.12-.09,0-.23.02-.41.06-.19.04-.33.06-.43.06h-.07l-.41-.06-.71.22-.3-.03-.13.09-1.56.03-.4-.06-.13.21-.54-.15-.36.16c-.12.05-.35.07-.69.07l-.46-.09c-.23,0-.45.02-.65.07-.2.05-.56.09-1.08.13l-.3.28-.2-.06c-.08.09-.12.23-.12.42,0,.25.17.72.51,1.41l-.26.7.26.18-.26.37c.18.03.26.14.26.33l-.16.61-.1,1.22.07.46,1.22.15.91-.21.3.15c.07.04.32.06.77.06.22,0,.39-.07.51-.21l.64-.13.77.25c.54-.1.85-.15.94-.15.13,0,.31-.03.54-.1l.41.13.54-.13.3.16c.52-.02.81-.04.9-.06.08-.02.17-.03.26-.03.07,0,.16.01.3.03.13.02.22.03.26.03.13,0,.25-.06.35-.19l.84-.09.35.09c.09-.04.16-.06.23-.06l.36.12h.18l-.07.16c-.25,0-.57.13-.95.36h-.46l-.31.19-.77-.07-.66.21c-.5.13-.84.19-1.02.19l-.54-.15-.13.15-1.02-.12-.39.18-.61-.06-.48.1c-.33.07-.59.1-.77.1h-.23c-.14,0-.32.05-.54.16l-.38-.22-.16-.03c-.13,0-.46.1-.97.31l-.64-.09-.26.09-.48-.09c-.14,0-.28.59-.41,1.76,0,.34-.02.64-.07.92.13.23.18.39.13.49l-.36.97.2.37-.23.39.1.49-.13.24s.03.11.03.22c0,.26-.09.69-.26,1.29-.18.6-.33,1.22-.48,1.84l-.38-.19h-.23l.07-.36v-.28l.16-.15.03-.37c0-.12.08-.34.25-.65l-.25-.16v-.33l-.16-.15.26-.46-.3-.09c.04-.18.1-.36.18-.54.08-.18.12-.29.12-.33v-.06l-.13-.15.03-.21-.1-.46.2-.49-.1-1.19.25-1.19-.15-.48v-.55c0-.16-.09-.27-.26-.34l-.91.34-.67-.34-.64.09s-.11.03-.2.03c-.16,0-.25-.14-.25-.42s.05-.46.16-.58c.11-.12.33-.18.67-.18.3,0,.56.01.79.03l1,.09h.23c.27,0,.46-.17.54-.52l-.16-.4v-1.43l-.16-.03.13-1.65-.38-.91-.03-.61-.94-.4-.77.46-.31-.39c-.2-.04-.32-.13-.36-.28.11-.12.16-.38.16-.79.34,0,.63-.08.86-.23.24-.15.43-.23.58-.23l.94.09c.07,0,.28,0,.64-.03l1.66-.09,1.14.15,1.15-.06c.1-.04.19-.08.29-.13.09-.05.15-.07.16-.07.02,0,.08.02.19.06.1.04.16.06.17.06h.07c.05,0,.48-.06,1.28-.18l.03.18c.08-.1.15-.15.23-.15.11,0,.24.08.38.24l.23-.09.89-.09h.07l1.97.24c.32-.08.64-.12.95-.12.13,0,.26.04.4.12Z"/>
      <path d="m27.6,17.64c.16.23.25.4.25.51,0,.08-.1.25-.3.51-.2.26-.36.53-.47.82l-.25.03-.36.64-.41.06-.91.55-.16.33-.28-.03-.3.31h-.48l-.1.15-.23-.03c-.24,0-.46.1-.64.3l-.21-.15c-.23.1-.42.15-.56.15-.25,0-.46-.05-.61-.15-.11.02-.26.03-.44.03l-.2-.15c-.6-.03-1.01-.18-1.22-.46v-.37l-.54-.27-.13-.31c-.04-.1-.16-.23-.36-.39v-.24l-.38-1.44.07-1.03.13-.58v-.64l.18-.55-.07-.4c.12-.09.2-.2.23-.33.03-.13.1-.28.2-.45-.04-.18-.09-.43-.13-.76l.3-.22-.3-.3c.15-.23.23-.37.23-.43l-.16-.91c0-.22.03-.43.1-.64.13.18.28.27.44.27.09,0,.3-.04.64-.12-.02-.06-.03-.13-.03-.21,0-.14.09-.26.26-.37.18-.5.42-.96.74-1.4.21-.15.31-.35.31-.61h.16l.16-.3.2-.07c.04-.13.16-.28.35-.45.25-.07.55-.3.9-.7.04.02.14.03.28.03.03,0,.12-.11.26-.34.38-.12.59-.18.61-.18.1,0,.2.06.3.18l.31-.06.16.12h.2c.12.33.35.49.67.49h.1c.03.14.1.24.21.31l-.15.06c.38.17.58.56.58,1.18l-.1.34.1.85-.16.13-.38.91-.67.76-.03.43c-.8.6-1.46,1-1.97,1.22-.04.12-.12.18-.21.18-.04,0-.13-.02-.26-.06l-.74.46h-.44l-.64.27-.28-.15c-.08-.04-.31-.08-.69-.12-.34.29-.51.66-.51,1.12l-.23.25c-.04.38-.1.64-.16.79l-.18.09.18,1.1-.18.15.03.34-.03.42c0,.07.03.26.08.57.05.31.14.49.26.54-.05.14.05.31.32.51.27.2.56.34.86.42v.18l.87.12,1.25.06.84-.09c.34-.22.59-.35.74-.4l.26-.36h.31l.03-.15c.48-.15.75-.25.8-.3.05-.05.07-.11.07-.16.07-.12.16-.18.3-.18l.1-.19c.49-.07.8-.36.92-.88.11-.08.24-.12.39-.12Zm-2.76-6.95c.09,0,.24-.13.44-.37l.1-.36c.27-.42.43-.68.48-.8.04-.11.07-.26.07-.42s-.08-.47-.23-.89l-.67-.21c-.18.04-.29.06-.35.06l-.2-.06c-.16,0-.28.09-.35.27-.2,0-.5.07-.91.22l-.1.21s-.09-.03-.13-.03c-.03,0-.06,0-.09.01-.03,0-.05.02-.07.04-.02.02-.04.04-.07.07-.02.02-.04.06-.06.1-.02.04-.03.08-.05.13s-.03.09-.05.13c-.02.04-.09.13-.21.26l-.25.27-.48.82-.25.19c-.08.06-.14.19-.18.39-.04.2-.34.67-.89,1.43l.23.12.12.25.56.15c.32-.2.66-.33,1.02-.4l.1-.18c.12.04.21.06.26.06.11,0,.21-.06.31-.18l.39-.06.25-.37h.23l.16-.33c.3,0,.58-.12.84-.37v-.15Z"/>
      <path d="m42.13,8.46l-.1.37-.99.12-.64.43-.43.06-.54.3-.54.22c-.26.21-.48.34-.64.39v.15l-.49.22-.35.49h-.36l-.18.48-.38.22c-.15.08-.27.19-.36.33l-.33.55c-.25.12-.4.39-.44.82l-.16-.06-.07.19-.25.15-.23.52c-.24.31-.36.54-.36.7l-.31.12v.64c-.07.07-.12.18-.16.33l.07.1-.33.12.1.24c-.03.2-.2.57-.51,1.1l.16.39-.33.49c.04.2.07.35.07.46l-.07.49.15.54s.06.09.15.18l.25.22c-.14.25-.28.42-.41.52l-.44-.15.07.27-.74-.12v-.4l-.1-.27.1-.49-.1-.21.07-1.04-.07-.7c-.15-.05-.23-.11-.23-.18,0-.08.08-.2.23-.37v-.45c0-.24-.01-.41-.03-.52l.13-.15-.13-.58.1-.46-.1-.28.1-.82-.16-.24.1-.28-.2-.61.07-.48c0-.13-.02-.31-.07-.55l.1-.15-.2-1.04-.25-.15.25-.52c-.23-.29-.35-.62-.35-1.01v-.42c-.1-.1-.16-.19-.2-.28.15-.19.43-.35.84-.49l.25.06c.04.25.16.49.36.71l-.07.76.33,2.31c0,.15-.07.28-.2.4l.16.64-.1.46.1.49-.07.39.25.46-.15.09.12.7.26.06.12-.6c.01-.07.14-.25.39-.54.29-.23.43-.48.43-.76v-.18l.21-.09s.06-.04.08-.11c.02-.07.06-.11.12-.11h.1l.2-.6.51-.31.03-.18h.23l-.1-.34.51-.21.03-.37.48-.06c.24-.18.41-.37.49-.58l.31-.06c.04-.08.25-.26.61-.55.08,0,.13-.03.16-.09l.54-.27.13-.22.3-.15c.58-.39.98-.58,1.18-.58h.13c.2,0,.36-.05.48-.15l.3.09c.15-.1.28-.15.38-.15.41.08.62.14.64.18Z"/>
      <path d="m62.58,15.75c.04.16-.09.32-.41.48l.05.1c0,.1-.15.31-.44.63-.3.32-.44.57-.44.74l-.36.09c-.01.42-.21.66-.61.73-.03.12-.09.18-.16.18h-.07c-.03.17-.16.25-.38.25l-.2.36-.48.09-.39.24c-.05.03-.13.05-.21.07l-.74.12-.26-.03-.25.03-.1-.12-.3-.03-.38-.43h-.16c-.09-.08-.13-.19-.13-.33-.36-.36-.54-.63-.54-.83v-.24l-.23-.4v-.18l.16-.09-.13-.43-.25-.55.05-.82-.35-.49v-.76c-.32-1.48-.48-2.38-.48-2.71v-.12c-.04-.16-.07-.27-.07-.34,0-.08.01-.14.03-.18-.25-.35-.38-.63-.39-.85l-.16-.13-.71.67-.35.43-1.18,1.28-.46.76c-.16.33-.3.57-.39.72-.1.15-.32.38-.66.68l.1.28-.23.58-.26.03v.27h-.18l-.64.7c-.02.34-.16.53-.43.58-.1.13-.19.32-.26.57-.08.25-.2.38-.38.39l-.13.12c-.21.33-.4.58-.58.75-.18.17-.44.37-.77.59-.08.34-.21.54-.41.61l-.03.15c-.01.14-.07.27-.16.39s-.37.24-.81.33c-.16-.02-.29-.19-.38-.51-.09-.32-.22-.51-.39-.58l-.1-.19.26-.39-.03-.37.16-.15-.16-.27.03-.37-.26-.67.23-.4-.13-.42c.15-.28.23-.69.23-1.25v-.16s-.07-.17-.2-.36c.18-.13.26-.25.26-.37l-.07-.48.2-1.16-.13-.22.03-.48-.16-.28.13-.97-.07-.34.1-.55-.1-.79.23-.4c.41.11.63.18.67.22.04.04.07.13.08.28.02.14.02.37.02.69l.28.4-.1.58.13,1.25-.23.67.1.79v.37l-.31.45.21.64c-.07.09-.15.37-.25.83l.16.36c-.19.55-.27.94-.26,1.19l.03,1.1.1.15.41-.18h.33l.18-.67c.25-.07.41-.18.46-.34.03-.24.2-.36.51-.36.03-.23.11-.38.23-.46.09,0,.19-.14.31-.43.23-.21.41-.42.54-.64v-.42h.03c.09,0,.19-.07.3-.22.12-.14.26-.22.44-.22.08-.26.18-.44.3-.55l.48-.52.43-.85c-.04-.16-.07-.26-.07-.31,0-.06.03-.09.1-.09.45-.27.67-.53.67-.79v-.37c.34-.12.51-.23.51-.33,0-.04-.02-.1-.05-.17-.03-.07-.05-.12-.05-.14,0-.1.04-.15.13-.15.08,0,.16.03.26.09.16-.55.42-.82.76-.82.07,0,.16.02.3.06,0-.29.1-.52.3-.7.04-.13.31-.28.79-.46l.16-.24h.13c.19.23.35.37.48.43l.07.21.16.06.07.58.44.24-.15.52.25.95v.88l.23,1.04.1,1.09.35,1.01.07,1.01s.07.12.17.29c.1.17.18.4.22.68l.15.09v.46l.3.3-.07.22.23.12v.15c.21.12.39.18.54.18.19,0,.36-.04.51-.12.08.04.13.06.16.06.1,0,.2-.08.3-.24.32-.03.48-.11.48-.24v-.07c.03-.07.26-.17.67-.3.11-.12.22-.22.35-.3l-.03-.07s.06-.11.12-.17c.06-.06.17-.15.32-.27.15-.11.26-.22.31-.32l.18-.33c.14-.18.36-.47.64-.86l.46-.21h.31l.1.43Z"/>
      <path d="m76.2,20.11l-.48.21-.1.27c-.19.04-.36.09-.51.16l-.16-.1-.25.1-.53-.58v-.67l-.25-.19.07-.94-.2-1.95.13-.64-.23-.34.3-.15-.2-.27.07-.28.16-.12-.03-.37h.18v-.61l.07-.3c-.09-.02-.19-.11-.31-.28l-.53.22c-.14.25-.29.41-.44.49l-.03.33-.38.15-.07.43-.23.15v.22c-.22.15-.38.33-.48.54l-.23.13-.51.82-.81.73-.26.4-.71.67-.18.36-.97.61-1.09,1.16-.36.09c-.11.02-.28.12-.51.31h-.1c-.19,0-.33-.16-.44-.49-.84-.3-1.29-.72-1.33-1.28l.26-.15c-.15-.39-.24-.78-.26-1.19l-.18-.12.12-.16c.04-.06.08-.16.1-.3.02-.14.05-.34.1-.6l.23-1.13s-.03-.11-.03-.21c0-.11.03-.22.1-.34-.04-.15-.07-.26-.07-.33,0-.08.02-.18.07-.31l.13-.03c.19-.23.28-.42.28-.58,0-.1-.04-.18-.11-.24-.07-.06-.11-.1-.11-.12,0-.07.06-.12.18-.15-.16-.03-.25-.09-.25-.19s.12-.15.35-.15v-.06c0-.22.07-.42.21-.6.14-.18.21-.31.22-.38l-.23-.06.44-.64v-.15c0-.43.15-.79.46-1.1l-.03-.55.15-.09c-.08-.09-.12-.19-.12-.3,0-.06.07-.09.21-.09v-.49c.11-.03.16-.08.16-.15s-.01-.12-.03-.16c.07-.09.22-.25.46-.49.24-.24.4-.44.48-.6h.1c.25,0,.38-.05.38-.16,0-.04-.03-.09-.1-.15.45,0,.69-.08.71-.24l.61-.28,1.74.13v.12l1.42.27h.13c.21,0,.31.08.31.25l.16-.06c.05.18.18.27.38.27l.16-.03.3.27.71.16v.27c.32-.19.72-.35,1.22-.49v.49h-.16l.33.15-.07.06.26.77-.3.3-.13.51c-.04.17-.15.38-.31.62l.21.39s-.08.11-.19.24c-.1.13-.16.36-.16.68.07.03.1.08.1.15l-.07.25.03.21-.1.33.07.28-.2.21.07.67-.1.09.1.13-.1.09s.03.06.03.12c0,.09-.03.18-.1.27l.1.19-.16.27c-.09.05-.13.19-.13.43l.13.39-.31.37c.11.21.21.34.31.4-.16.21-.3.6-.41,1.18l.28.06-.03.16s.03.1.03.21c0,.16-.08.36-.25.61h.21l.1.46.67.06.23.39c-.07.04-.1.07-.1.1,0,.08.11.18.33.3h-.03s-.07.01-.07.03c0,.05.09.14.28.28Zm-1.73-10.95l-.2-.55-.54-.15-.94-.76c-.14-.08-.26-.12-.35-.12-.05,0-.14.02-.26.06l-.16-.15h-.54l-.16-.19-.38.13-.16-.13-.28.07-.53-.07c-.25,0-.65.11-1.18.34l.07.12-.3.09-.07.12-.38.04v.18c-.22.12-.48.44-.77.97-.19.62-.39,1.14-.61,1.56l.26.12-.43.34.13.24c-.2.27-.3.58-.3.94v.16l-.25.33v.52c-.18.18-.27.36-.3.55l-.13.12v.55l-.12.15c0,.2-.04.47-.13.82l.18.37c-.14.05-.3.17-.48.37l.13.24-.2.24.26.61-.3.37.03.73-.1.34.16.09.07.21c.19.07.35.18.48.34l.77-.16c.14-.3.39-.46.74-.48l-.07-.22c.34-.08.52-.12.53-.13.02,0,.04-.06.07-.17.03-.11.13-.21.3-.31h.07c.07,0,.1-.04.1-.12l.61-.64h-.13l.36-.3c.12-.11.3-.2.54-.28l.25-.58c.42-.16.65-.37.71-.64h.2l.33-.39-.07-.25.31-.06c-.04-.07-.07-.12-.07-.15s.08-.14.23-.33c.15-.19.27-.35.36-.48l.15.06c.03-.24.15-.42.36-.55.04-.16.13-.28.26-.38.13-.09.22-.14.28-.14h.23l.03-.37s.07-.08.07-.12c0-.06-.03-.12-.1-.18.2-.3.36-.48.48-.55l.07-.33.23-.16-.07-.27c.13-.19.21-.37.25-.55l.3-.27.07-.8Z"/>
      <path d="m100.26,15.75c.04.16-.09.32-.41.48l.05.1c0,.1-.15.31-.44.63-.3.32-.44.57-.44.74l-.36.09c-.01.42-.21.66-.61.73-.03.12-.09.18-.16.18h-.07c-.03.17-.16.25-.38.25l-.2.36-.48.09-.39.24c-.05.03-.13.05-.21.07l-.74.12-.26-.03-.25.03-.1-.12-.3-.03-.38-.43h-.16c-.09-.08-.13-.19-.13-.33-.36-.36-.54-.63-.54-.83v-.24l-.23-.4v-.18l.16-.09-.13-.43-.25-.55.05-.82-.35-.49v-.76c-.32-1.48-.48-2.38-.48-2.71v-.12c-.04-.16-.07-.27-.07-.34,0-.08.01-.14.03-.18-.25-.35-.38-.63-.39-.85l-.16-.13-.71.67-.35.43-1.18,1.28-.46.76c-.16.33-.3.57-.39.72-.1.15-.32.38-.66.68l.1.28-.23.58-.26.03v.27h-.18l-.64.7c-.02.34-.16.53-.43.58-.1.13-.19.32-.26.57-.08.25-.2.38-.38.39l-.13.12c-.21.33-.4.58-.58.75-.18.17-.44.37-.77.59-.08.34-.21.54-.41.61l-.03.15c-.01.14-.07.27-.16.39s-.37.24-.81.33c-.16-.02-.29-.19-.38-.51-.09-.32-.22-.51-.39-.58l-.1-.19.26-.39-.03-.37.16-.15-.16-.27.03-.37-.26-.67.23-.4-.13-.42c.15-.28.23-.69.23-1.25v-.16s-.07-.17-.2-.36c.18-.13.26-.25.26-.37l-.07-.48.2-1.16-.13-.22.03-.48-.16-.28.13-.97-.07-.34.1-.55-.1-.79.23-.4c.41.11.63.18.67.22.04.04.07.13.08.28.02.14.02.37.02.69l.28.4-.1.58.13,1.25-.23.67.1.79v.37l-.31.45.21.64c-.07.09-.15.37-.25.83l.16.36c-.19.55-.27.94-.26,1.19l.03,1.1.1.15.41-.18h.33l.18-.67c.25-.07.41-.18.46-.34.03-.24.2-.36.51-.36.03-.23.11-.38.23-.46.09,0,.19-.14.31-.43.23-.21.41-.42.54-.64v-.42h.03c.09,0,.19-.07.3-.22.12-.14.26-.22.44-.22.08-.26.18-.44.3-.55l.48-.52.43-.85c-.04-.16-.07-.26-.07-.31,0-.06.03-.09.1-.09.45-.27.67-.53.67-.79v-.37c.34-.12.51-.23.51-.33,0-.04-.02-.1-.05-.17-.03-.07-.05-.12-.05-.14,0-.1.04-.15.13-.15.08,0,.16.03.26.09.16-.55.42-.82.76-.82.07,0,.16.02.3.06,0-.29.1-.52.3-.7.04-.13.31-.28.79-.46l.16-.24h.13c.19.23.35.37.48.43l.07.21.16.06.07.58.44.24-.15.52.25.95v.88l.23,1.04.1,1.09.35,1.01.07,1.01s.07.12.17.29c.1.17.18.4.22.68l.15.09v.46l.3.3-.07.22.23.12v.15c.21.12.39.18.54.18.19,0,.36-.04.51-.12.08.04.13.06.16.06.1,0,.2-.08.3-.24.32-.03.48-.11.48-.24v-.07c.03-.07.26-.17.67-.3.11-.12.22-.22.35-.3l-.03-.07s.06-.11.12-.17c.06-.06.17-.15.32-.27.15-.11.26-.22.31-.32l.18-.33c.14-.18.36-.47.64-.86l.46-.21h.31l.1.43Z"/>
      <path d="m116.17,18.95c-.24.78-.54,1.31-.91,1.58-.26-.08-.44-.19-.54-.33l-.61-.86-.23-.48-.44-1.41v-1.37l-.1-1.19.1-.67-.1-.58v-.85l-.31-.4-.13.25-.26.03-.51,1.07-.61.79h-.26l-.08.31c-.03.12-.1.25-.19.4-.09.15-.21.33-.34.54l-.9.91-.71.95-.77.73c-.18.27-.38.52-.61.76l-.46.33c-.14.11-.33.32-.56.62l-.58.18c-.07.02-.2.13-.39.33l-.4.07c-.12,0-.35.11-.69.3l-.3-.06-.1.18-.38-.03-1.07-.73c-.18-.22-.31-.51-.39-.89-.09-.37-.21-.56-.38-.57l-.18.06.35-.49-.16-.49.13-.39-.07-.58.23-.92v-.85l.23-.31v-.76c.16-.29.25-.52.25-.7l.13-.09v-.55l.3-.49.03-.42c.14-.19.25-.39.31-.61l.16-.92c.03-.21.16-.39.38-.55l.03-.33c.02-.1.09-.23.21-.4.12-.17.18-.32.18-.46.33-.31.61-.52.84-.64l-.07-.12c.14-.03.22-.08.25-.15.03.02.1.03.2.03.09,0,.15,0,.2-.03l-.16-.06,1.45-.37c.21-.02.4-.03.58-.04.18,0,.26-.04.26-.1v-.03l.54-.03.3.15.18-.06c.03.1.12.15.26.15.04,0,.09,0,.13-.03l.54.03v.13l.13-.06.51.39.51-.12.3.49.54.4c.07.05.16.2.3.45l.54.27c.18.17.31.25.41.25.07,0,.11-.04.13-.12l.23-1.04.26-.55-.1-.79.15-1.43-.15-.37c.16-.18.25-.39.25-.64l-.15-.27.12-.83-.12-.85.15-.18-.15-.09c.12-.1.18-.18.18-.25,0-.04-.02-.1-.07-.18.07-.15.1-.29.1-.43,0-.15-.03-.3-.1-.45h.16c-.04-.08-.07-.17-.07-.28,0-.13.11-.25.33-.36l-.13-.07.16-.03c.12,0,.2.08.25.25.16.03.26.16.3.39h-.16l.03.49-.03.28h-.2l.36.36-.13.43.23.49-.16.21c.11.24.16.42.16.55,0,.12-.03.24-.1.36l.26.19c-.11.06-.16.12-.16.18,0,.1.09.18.28.24v.09c0,.13-.09.24-.28.34v.27c0,.5-.09,1.35-.26,2.56.02.04.03.11.03.22,0,.15-.05.34-.16.58l.13.27-.2.7-.1.74c-.01.1-.08.27-.21.51l.1.34-.2.55.2.42-.26.95.16.73-.1.43.07.39-.2.09c.22.33.33.5.33.52,0,.09-.07.15-.2.18l.07.19-.07.09.23.21-.16.49.23.67-.1.21.1.22-.2.55.16.15h.28l.23.27.48-.12.16.24.58.19Zm-3.21-8.32l-.2-.06-.35-.28-.28-.15s-.13-.15-.25-.39c-.13-.24-.28-.44-.47-.59-.12-.04-.22-.1-.3-.18v-.21l-.51-.09-.49-.25c-.1-.06-.23-.11-.4-.15-.17-.04-.4-.09-.68-.15l-1.02.12-.3.15-.31-.21-.53.15h-.67l-.12.27-.2.07c0,.17.04.27.13.3-.12.18-.4.4-.84.67l-.23.55-.31.15-.3.83-.1.91-.31.27v.52c-.24.2-.36.36-.36.49l.07.73-.54.95-.13.67-.03,1.03.1.22-.23.42.16.25-.26.51c.19.32.34.68.46,1.1l.31.15-.07.19h.33c.23.14.37.21.41.21.02,0,.07-.05.16-.15.08-.1.26-.15.52-.15v.12c.14-.1.23-.19.26-.28.18,0,.26-.07.26-.21l.31-.12.13.09.1-.34.67-.24.07-.27.48-.25v-.15l.36-.34.11.04c.09,0,.13-.07.13-.22h.23v-.18l.54-.21-.13-.46.36-.21-.23-.22s.11.03.2.03c.12,0,.26-.05.41-.15l.03-.12.36-.03.38-.89.33-.3.13-.55.41-.12c.31-.48.55-.78.74-.92v-.42l.31-.12.84-1.53.33-.3Z"/>
    </g>
  </g>
  <g id="Calque_6" data-name="Calque 6">
    <g id="Mamud_vectorizer">
      <path d="m183.86,20.58c-.05.06-.22.13-.49.21l-.71-.43-.92-1.03-.26-.61c-.07-.39-.15-.71-.26-.98-.25-.26-.38-.81-.38-1.67,0-.14.02-.24.07-.31.05-.07.11-.4.17-1l-.35-.64.1-.31-.1-.58.03-.67-.23-.21.2-.46-.2-.27.2-.28-.23-.64v-.97l-.28-.58c-.01-.26-.02-.48-.04-.67-.02-.19-.23-.4-.63-.64l-.43.48-.38.16-1.14,1.43-.99,1.07-.33.64-.95.97-1.27.86-.12.51-.67.22-.1.42-.77.34-.26.58-.54.18-.77,1.25c-.31,0-.49.25-.54.76-.09.02-.16.03-.23.03-.09-.18-.27-.44-.54-.79l.07-.4-.23-.27.23-.27-.21-.22c-.05-.06-.14-.27-.26-.64l-.46-.39c-.09-.03-.21-.15-.35-.35-.15-.2-.26-.35-.34-.45-.08-.1-.18-.34-.3-.73l-.36-.39-.64-1.16-.67-.7-.23-.43-.64-.64-.67-.95c-.38-.53-.69-.79-.91-.79-.15,0-.3.02-.44.07-.14.05-.22.07-.24.07h-.05v.37c0,.67-.1,1.18-.3,1.52l-.71,1.19.16.77-.23.54-.67,2.05-.26.67-.11.45-.43.98-.54.85.07.67-.58,1.25c0,.18.1.31.31.4-.44.49-.73.73-.87.73-.05,0-.14-.08-.26-.23-.12-.15-.18-.34-.18-.56,0-.04.04-.17.13-.38.09-.21.16-.47.23-.77s.16-.51.29-.65c.13-.13.19-.21.19-.22v-.74c0-.43.22-.74.67-.94v-.49l.2-.7s-.03-.1-.03-.18c0-.1.06-.3.18-.61.15-.17.23-.35.23-.55v-.67l.3-.49.61-1.83-.16-.82.3-.21.12-.37.03-1.31c.11-.55.16-.93.16-1.16s-.15-.6-.44-1.13l.28-.51-.15-.22c.1-.04.15-.13.15-.27.33,0,.54-.07.63-.21l.31.03.39.27v.27l.38.22.1.7.31.24.13.43h.16c-.04.08-.07.15-.07.21,0,.18.18.28.54.31.14.06.3.17.46.33l.07.4.38.36.23.71,1.51,1.46.28.82.51.37.46,1.19,1.15,1.86c.24.37.53.69.87.97l.07-.4h.61l.38-.76.71-.45c.12-.16.32-.36.61-.61v-.25c.24-.15.49-.29.75-.41.26-.12.39-.2.39-.23,0-.02-.01-.03-.03-.03,0-.14.07-.3.2-.49h.35l.3-.39c.08.1.14.15.18.15.02,0,.03-.03.03-.09,0-.02-.03-.2-.08-.55.49-.6.93-.91,1.32-.91v-.37c0-.21.19-.36.58-.46l.2.06.08-.18.71-1.01.07-.21h.23c.33-.32.58-.69.74-1.13.14-.1.31-.15.51-.15.08,0,.13.03.16.09l.23-.45-.13-.92-.2-.43c.24-.32.4-.64.48-.97.24.03.42.07.53.12.05.07.2.12.44.15l.07.49c.37.29.57.45.58.48s.02.09.02.19l-.03.25v.82l.2.27-.2.16.2.06-.07.33.13.15.1.64.18.13-.35.42.16.06-.1.64.25.55-.08.7.31,1.1c.05.22.11.52.16.91-.13.25-.26.43-.4.55l.2.37c.09.05.13.1.13.15s-.04.15-.12.29c-.08.14-.14.27-.17.38l.26.22-.1,1.67.33,1.04v1.22l.25.24c.13.3.24.5.33.61.09.11.26.29.52.53.26.24.4.42.42.54Z"/>
      <path d="m199.31,19.82l-.48.21-.1.27c-.19.04-.36.09-.51.16l-.16-.1-.25.1-.53-.58v-.67l-.25-.19.07-.94-.2-1.95.13-.64-.23-.34.3-.15-.2-.27.07-.28.16-.12-.03-.37h.18v-.61l.07-.3c-.09-.02-.19-.11-.31-.28l-.53.22c-.14.25-.29.41-.44.49l-.03.33-.38.15-.07.43-.23.15v.22c-.22.15-.38.33-.48.54l-.23.13-.51.82-.81.73-.26.4-.71.67-.18.36-.97.61-1.09,1.16-.36.09c-.11.02-.28.12-.51.31h-.1c-.19,0-.34-.16-.44-.49-.84-.3-1.29-.72-1.33-1.28l.26-.15c-.15-.39-.24-.78-.26-1.19l-.18-.12.12-.16c.04-.06.08-.16.1-.3.02-.14.05-.34.1-.6l.23-1.13s-.03-.11-.03-.21c0-.11.03-.22.1-.34-.04-.15-.07-.26-.07-.33,0-.08.02-.18.07-.31l.13-.03c.19-.23.28-.42.28-.58,0-.1-.04-.18-.11-.24-.07-.06-.11-.1-.11-.12,0-.07.06-.12.18-.15-.16-.03-.25-.09-.25-.19s.11-.15.35-.15v-.06c0-.22.07-.42.21-.6.14-.18.21-.31.22-.38l-.23-.06.44-.64v-.15c0-.43.15-.79.46-1.1l-.03-.55.15-.09c-.08-.09-.11-.19-.11-.3,0-.06.07-.09.21-.09v-.49c.11-.03.16-.08.16-.15s-.01-.12-.03-.16c.07-.09.22-.25.46-.49.24-.24.4-.44.48-.6h.1c.25,0,.38-.05.38-.16,0-.04-.03-.09-.1-.15.45,0,.69-.08.71-.24l.61-.28,1.74.13v.12l1.42.27h.13c.21,0,.31.08.31.25l.16-.06c.05.18.18.27.38.27l.16-.03.3.27.71.16v.27c.32-.19.72-.35,1.22-.49v.49h-.16l.33.15-.07.06.26.77-.3.3-.13.51c-.04.17-.15.38-.31.62l.21.39s-.08.11-.19.24-.16.36-.16.68c.07.03.1.08.1.15l-.07.25.03.21-.1.33.07.28-.2.21.07.67-.1.09.1.13-.1.09s.03.06.03.12c0,.09-.03.18-.1.27l.1.19-.16.27c-.09.05-.13.19-.13.43l.13.39-.31.37c.11.21.21.34.31.4-.16.21-.3.6-.41,1.18l.28.06-.03.16s.03.1.03.21c0,.16-.08.36-.25.61h.21l.1.46.67.06.23.39c-.07.04-.1.07-.1.1,0,.08.11.18.33.3h-.03s-.07.01-.07.03c0,.05.09.14.28.28Zm-1.73-10.95l-.2-.55-.54-.15-.94-.76c-.14-.08-.26-.12-.35-.12-.05,0-.14.02-.26.06l-.16-.15h-.54l-.16-.19-.38.13-.16-.13-.28.07-.53-.07c-.25,0-.65.11-1.18.34l.07.12-.3.09-.07.12-.38.04v.18c-.22.12-.48.44-.77.97-.19.62-.39,1.14-.61,1.56l.26.12-.43.34.13.24c-.2.27-.3.58-.3.94v.16l-.25.33v.52c-.18.18-.27.36-.3.55l-.13.12v.55l-.12.15c0,.2-.04.47-.13.82l.18.37c-.14.05-.3.17-.48.37l.13.24-.2.24.26.61-.3.37.03.73-.1.34.16.09.07.21c.19.07.35.18.48.34l.77-.16c.14-.3.39-.46.74-.48l-.07-.22c.34-.08.52-.12.53-.13s.04-.06.07-.17c.03-.11.13-.21.3-.31h.07c.07,0,.1-.04.1-.12l.61-.64h-.13l.36-.3c.12-.11.3-.2.54-.28l.25-.58c.42-.16.65-.37.71-.64h.2l.33-.39-.07-.25.31-.06c-.04-.07-.07-.12-.07-.15s.08-.14.23-.33c.15-.19.27-.35.36-.48l.15.06c.03-.24.15-.42.36-.55.04-.16.13-.28.26-.38.13-.09.22-.14.28-.14h.23l.03-.37s.07-.08.07-.12c0-.06-.03-.12-.1-.18.2-.3.36-.48.48-.55l.07-.33.23-.16-.07-.27c.13-.19.21-.37.25-.55l.3-.27.07-.8Z"/>
      <path d="m230.73,17.5l-.18.24-.23.06c0,.2-.07.35-.22.46-.15.11-.22.19-.22.25v.06l-.1.06c-.07.14-.18.26-.35.36-.17.1-.28.16-.32.16l-.3-.04-.03.31c-.19.16-.29.24-.31.24s-.16-.02-.43-.06c-.24.13-.49.19-.74.19-.18,0-.55-.04-1.12-.13-.08-.1-.15-.15-.23-.15s-.17.03-.28.09c-.06-.14-.23-.28-.53-.42l.07-.22c-.25-.1-.38-.3-.38-.61l.03-.27-.39-.28-.21-.91-.3-.49v-.21l-.23-.98.03-.39-.25-1.07-.03-.46.07-.94-.13-1.19-.44.43-.71,1.12-.3.64c-.44.28-.72.61-.84.98-.23,0-.35.22-.35.67-.13.13-.25.27-.35.42-.1.15-.18.28-.24.36-.06.09-.09.14-.09.15v.07c-.37.31-.61.65-.71,1.03-.05.04-.16.19-.33.46-.16.27-.46.62-.87,1.04-.21.08-.38.26-.51.55-.09.19-.21.3-.35.34-.15.04-.22.14-.22.31v.13c-.18,0-.51.1-1,.3-.2-.02-.33-.14-.41-.36l-.07-.43-.2-.37v-.36l-.28-1.01c.02-.06.03-.13.03-.21,0-.1-.05-.23-.16-.4l.13-1.03-.13-.22.13-.49-.07-.27v-.21l-.13-.28.23-.45-.16-.95.07-.27.1-1.13-.23-.7.07-.55-.16-.43c-.21-.47-.34-.77-.39-.92-.05-.14-.12-.22-.22-.22-.02-.02-.07-.03-.13-.03-.08,0-.36.14-.84.43l-.48.58-.41.37-.91,1.12-.07.34-.54.55-.23.58c-.13.11-.24.28-.32.52-.08.24-.18.37-.28.4-.1.03-.24.1-.42.22l-.03.55c-.1.13-.2.29-.3.48-.1.19-.22.34-.36.46-.14.12-.25.33-.31.62-.25,0-.38.14-.38.42-.07.21-.19.31-.36.31-.09.2-.13.34-.13.43v.09c-.27.21-.41.34-.41.39,0,.06.03.12.1.19-.25.11-.45.3-.59.57-.14.27-.26.43-.35.49v.13c0,.14-.04.24-.13.3-.09.06-.24.19-.45.38-.21.19-.39.29-.53.29-.16,0-.29-.23-.36-.7.02-.04.03-.1.03-.18,0-.16-.08-.29-.23-.4v-.43c0-.16.04-.32.13-.48l-.16-.67.03-.49-.03-.52v-.12c0-.22.05-.38.16-.49l.07-.24c0-.08-.02-.23-.05-.46-.03-.23-.05-.36-.05-.4v-.49c.07-.2.16-.36.3-.48l-.26-.31c.09-.07.11-.14.08-.22-.03-.07-.05-.13-.05-.17,0-.07.06-.19.17-.36.12-.17.19-.35.22-.53l-.23-.58.1-.3-.2-1.04.1-.42-.2-.83.07-.55-.23-.48c.23-.48.46-.71.67-.7l.13.06.1.42c.29.06.43.22.43.49l-.07.64c0,.13.09.21.28.24-.21.29-.31.5-.31.64v.1l.18,1.55-.08,1.16-.13.33.13.37-.1.15.15.22c-.16.11-.25.24-.25.39l.07.25c0,.15-.07.27-.2.36l.13.85-.13.31c-.1.22-.13.4-.09.55.04.15.06.26.06.33,0,.13-.02.21-.07.25.11.2.16.31.16.33,0,.08-.06.18-.16.31l.33.21.64-.76.13-.43c.12-.06.22-.15.3-.26s.13-.24.16-.36.16-.34.39-.62c.04,0,.11-.05.21-.15.09-.1.21-.24.35-.43.14-.19.3-.37.49-.55.03-.1.08-.2.16-.3.07-.1.14-.19.21-.26.07-.07.16-.27.27-.61l.38-.61.05-.22c.03-.08.14-.21.33-.4l.63-.6c.08,0,.21-.18.39-.54.19-.36.4-.63.63-.83.23-.19.35-.36.36-.5.2-.03.3-.12.3-.28.24-.09.38-.23.41-.42l.1.03c.11,0,.24-.19.38-.58.33-.27.56-.4.71-.4.01,0,.28.06.81.18.04.08.07.14.07.19,0,.04-.02.1-.07.18l.23.06c0,.1.16.35.48.76v.49l.3.31v.39c.25.49.38.88.38,1.19l-.13.49.13.43-.31.33.18.95c-.08.21-.12.45-.12.73l.12.82-.08.27.08.31-.12.12c.16.64.25,1.2.25,1.65l-.07.24-.15.12c.16.22.25.45.25.7l.58.16,1.55-1.71c.07-.06.17-.23.3-.51.14-.28.26-.51.37-.68.12,0,.21-.15.25-.44.05-.29.18-.46.39-.5,0-.15.02-.26.07-.32.04-.06.24-.2.58-.39v-.06c0-.28.21-.57.64-.88.1-.31.24-.59.43-.85.31-.28.5-.5.59-.65l.35-.6c.14-.23.25-.46.31-.7.36-.12.66-.52.91-1.19.25-.06.42-.27.51-.64l.54-.22.46.22-.16.15.23.21c-.18.06-.26.13-.26.22s.05.16.16.21l-.23.4-.2,1.4c.1.05.18.12.23.21-.18.24-.26.59-.26,1.04l.03.55-.07.21.1.4s-.06.07-.12.13c-.06.05-.09.11-.09.17s.04.15.12.27c.13.04.2.17.2.4,0,.06-.03.12-.1.18.04.05.07.1.07.16,0,.03-.03.09-.1.18,0,.39.1.8.31,1.23.09.19.18.55.26,1.09l.43.21.16.67c.25.12.41.25.48.4l.41.15.49.09c.18.04.3.06.38.06.12,0,.28-.03.48-.1.2-.07.36-.14.48-.22.12-.07.33-.17.63-.29.19-.22.36-.46.51-.73l.44-.18.2-.31.46.03c0,.28.02.43.05.46Z"/>
      <path d="m248.68,18.63c.15-.02.33-.03.54-.03.24,0,.36.08.36.24,0,.14-.12.29-.36.46l-.25.12-.16.16s-.24.16-.58.33l-.54.15c-.13.12-.5.18-1.1.18-.06,0-.22-.04-.49-.12s-.45-.15-.53-.21l-1.1-.89-.25-.94-.33-.28v-.15c0-.3-.08-.56-.23-.79l.03-.73c.09-.36.13-.57.13-.64,0-.23-.07-.45-.2-.67l.1-1.37-.38.18-.23.33-.31.19c-.11.06-.22.18-.33.36l-.3.03c-.25.2-.38.4-.38.61-.33.13-.54.3-.62.53-.09.22-.26.46-.51.7-.25.24-.44.38-.58.42-.13.04-.24.1-.31.18l-.97,1.07h-.1l-.79.85-.63.31-.28.39c-.38.11-.84.28-1.38.52l-.51-.3c-.06.02-.13.03-.23.03-.13,0-.2-.05-.2-.16,0-.08.01-.14.03-.18l-.35-.18c0-.09.04-.19.12-.31l-.44-.39.26-.31h-.36l-.25-.58.25-.18-.31-.4c0-.5.04-.76.11-.79l.02-.52c.01-.18.07-.39.18-.64l-.28-.18c.19-.23.28-.42.28-.58,0-.12-.06-.28-.16-.49.13-.06.2-.22.2-.48,0-.1-.01-.23-.03-.4l-.13-1.01.4-2.13c-.02-.37-.08-.75-.16-1.16l-.13-.52c0-.32.19-.48.58-.48l.49.12.25.27-.15.64-.07,1.53.07.97-.23.49.13.3-.13.46v.4c-.09.03-.12.09-.08.19.03.09.05.16.05.2,0,.12-.04.23-.13.34l.23.27-.33.37.2.27-.1.4.1.49v.58l.2.21-.16.73c0,.12.07.27.2.46l-.1.33.16.43c.19.1.42.29.71.58.24-.03.46-.13.64-.3.19-.17.42-.34.71-.52,0-.02-.04-.03-.13-.03.36-.15.54-.31.54-.49.25-.03.43-.07.54-.12l.07-.37.33-.12c.25-.29.63-.48,1.12-.58l.03-.3.61-.46c.05-.39.29-.59.71-.61l.13-.4.3-.12.44-.58h.2v-.18l.31-.15.2-.43c.27-.13.54-.24.81-.34l.13-.33.25-.09v-.19l.13-.03c.05-.49.25-.73.58-.73l-.1-.09.62-1.68h.15v-.42h.03c.08,0,.27-.37.58-1.1l.59-.06-.07.12.35.58-.28,1.13-.49.67-.35,1.13-.43.27v.67l-.25.43.07.49-.23.21.07,1.34-.13,1.65.1.18-.03.24h.1v.46c.36.48.54.78.54.91l.48.1.1.27c.31.12.58.23.81.34l.44-.03.36.09.53-.19c.16-.06.39-.2.69-.42Z"/>
      <path d="m266.5,18.66c-.24.78-.54,1.31-.91,1.58-.26-.08-.44-.19-.54-.33l-.61-.86-.23-.48-.44-1.41v-1.37l-.1-1.19.1-.67-.1-.58v-.85l-.31-.4-.13.25-.26.03-.51,1.07-.61.79h-.26l-.08.31c-.03.12-.1.25-.19.4-.09.15-.21.33-.34.54l-.9.91-.71.95-.77.73c-.18.27-.38.52-.61.76l-.46.33c-.14.11-.33.32-.56.62l-.58.18c-.07.02-.2.13-.39.33l-.4.07c-.12,0-.35.11-.69.3l-.3-.06-.1.18-.38-.03-1.07-.73c-.18-.22-.31-.51-.4-.89s-.21-.56-.38-.57l-.18.06.35-.49-.16-.49.13-.39-.07-.58.23-.92v-.85l.23-.31v-.76c.16-.29.25-.52.25-.7l.13-.09v-.55l.3-.49.03-.42c.14-.19.25-.39.31-.61l.16-.92c.03-.21.16-.39.38-.55l.03-.33c.02-.1.09-.23.21-.4.12-.17.18-.32.18-.46.33-.31.61-.52.84-.64l-.07-.12c.14-.03.22-.08.25-.15.03.02.1.03.2.03.09,0,.15,0,.2-.03l-.16-.06,1.45-.37c.21-.02.4-.03.58-.04.18,0,.26-.04.26-.1v-.03l.54-.03.3.15.18-.06c.03.1.12.15.26.15.04,0,.09,0,.13-.03l.54.03v.13l.13-.06.51.39.51-.12.3.49.54.4c.07.05.16.2.3.45l.54.27c.18.17.31.25.41.25.07,0,.11-.04.13-.12l.23-1.04.26-.55-.1-.79.15-1.43-.15-.37c.16-.18.25-.39.25-.64l-.15-.27.12-.83-.12-.85.15-.18-.15-.09c.12-.1.18-.18.18-.25,0-.04-.02-.1-.07-.18.07-.15.1-.29.1-.43,0-.15-.03-.3-.1-.45h.16c-.04-.08-.07-.17-.07-.28,0-.13.11-.25.33-.36l-.13-.07.16-.03c.12,0,.2.08.25.25.16.03.26.16.3.39h-.16l.03.49-.03.28h-.2l.36.36-.13.43.23.49-.16.21c.11.24.16.42.16.55,0,.12-.03.24-.1.36l.26.19c-.11.06-.16.12-.16.18,0,.1.09.18.28.24v.09c0,.13-.09.24-.28.34v.27c0,.5-.09,1.35-.26,2.56.02.04.03.11.03.22,0,.15-.05.34-.16.58l.13.27-.2.7-.1.74c-.01.1-.08.27-.21.51l.1.34-.2.55.2.42-.26.95.16.73-.1.43.07.39-.2.09c.22.33.33.5.33.52,0,.09-.07.15-.2.18l.07.19-.07.09.23.21-.16.49.23.67-.1.21.1.22-.2.55.16.15h.28l.23.27.48-.12.16.24.58.19Zm-3.21-8.32l-.2-.06-.35-.28-.28-.15s-.13-.15-.25-.39c-.13-.24-.28-.44-.47-.59-.12-.04-.22-.1-.3-.18v-.21l-.51-.09-.49-.25c-.1-.06-.23-.11-.4-.15-.17-.04-.4-.09-.68-.15l-1.02.12-.3.15-.31-.21-.53.15h-.67l-.12.27-.2.07c0,.17.04.27.13.3-.12.18-.4.4-.84.67l-.23.55-.31.15-.3.83-.1.91-.31.27v.52c-.24.2-.36.36-.36.49l.07.73-.54.95-.13.67-.03,1.03.1.22-.23.42.16.25-.26.51c.19.32.34.68.46,1.1l.31.15-.07.19h.33c.23.14.37.21.41.21.02,0,.07-.05.16-.15.08-.1.26-.15.52-.15v.12c.14-.1.23-.19.26-.28.18,0,.26-.07.26-.21l.31-.12.13.09.1-.34.67-.24.07-.27.48-.25v-.15l.36-.34.11.04c.09,0,.13-.07.13-.22h.23v-.18l.54-.21-.13-.46.36-.21-.23-.22s.11.03.2.03c.12,0,.26-.05.41-.15l.03-.12.36-.03.38-.89.33-.3.13-.55.41-.12c.31-.48.55-.78.74-.92v-.42l.31-.12.84-1.53.33-.3Z"/>
    </g>
  </g>
</svg>